<svg width="20" height="20" viewBox="0 0 20 20" fill="none" xmlns="http://www.w3.org/2000/svg">
<path d="M8.5 11.5L11.5014 17.1141C12.3171 18.256 12.7249 18.8274 13.1661 18.9514C13.5498 19.0593 13.9617 18.9854 14.2842 18.7512C14.6551 18.4819 14.84 17.8046 15.2092 16.4508L18.6218 3.93809C18.9364 2.78465 19.0933 2.20795 18.9416 1.81066C18.8093 1.46418 18.5357 1.19054 18.1892 1.05825C17.7919 0.906554 17.2152 1.06432 16.0617 1.37889L3.54886 4.79144C2.19496 5.16068 1.51807 5.34515 1.24877 5.71604C1.01461 6.03854 0.940731 6.45037 1.04858 6.83404C1.17261 7.27529 1.74356 7.68266 2.88551 8.49833L8.5 11.5ZM8.5 11.5L12.211 7.78918" stroke="white" stroke-linecap="round"/>
</svg>
