<svg width="14" height="18" viewBox="0 0 14 18" fill="none" xmlns="http://www.w3.org/2000/svg">
<path d="M5.94632 2.46172L5.71539 2.06997C5.55959 1.80529 5.48179 1.67302 5.40203 1.56994C4.81393 0.809963 3.76659 0.542224 2.85956 0.919617C2.73654 0.970804 2.59995 1.04756 2.32652 1.2024C0.842279 2.12834 0.953999 5.28852 1.04948 5.75678C1.04948 5.75678 1.06881 7.30497 3.22158 10.9622C5.37434 14.6194 6.96229 15.8022 6.96229 15.8022C7.86569 16.5321 10.0623 17.7924 11.622 16.9946C11.8954 16.8398 12.032 16.7622 12.1387 16.6833C12.9255 16.1016 13.2125 15.0777 12.8355 14.1981C12.7844 14.0788 12.7066 13.9464 12.5508 13.6817L12.3203 13.29C12.0694 12.8638 11.9033 12.582 11.7506 12.3789C11.6203 12.2058 11.4321 12.0864 11.2328 11.9907C10.3716 11.5774 8.67113 11.9686 7.77601 11.6239C7.68335 11.5882 7.59285 11.5466 7.50477 11.4993C7.41474 11.4509 7.32856 11.3974 7.25096 11.3319C7.00942 11.1278 6.43895 10.5923 5.91328 9.6993C5.2328 8.54328 5.17823 7.72716 5.1769 7.7056V7.70418C5.16277 7.45074 5.1874 7.19957 5.24698 6.95699C5.46692 6.06142 6.58937 4.82388 6.57558 3.91123C6.57354 3.77616 6.56075 3.64082 6.51313 3.5152C6.41702 3.26166 6.23978 2.96027 5.94632 2.46172Z" stroke="white"/>
</svg>
